<?xml version="1.0" encoding="UTF-8"?>
<!DOCTYPE svg PUBLIC "-//W3C//DTD SVG 1.1//EN" "http://www.w3.org/Graphics/SVG/1.1/DTD/svg11.dtd">
<!-- Creator: CorelDRAW 2021 (64 Bit) -->
<svg xmlns="http://www.w3.org/2000/svg" xml:space="preserve" width="112.609mm" height="84.6668mm" version="1.1" style="shape-rendering:geometricPrecision; text-rendering:geometricPrecision; image-rendering:optimizeQuality; fill-rule:evenodd; clip-rule:evenodd"
viewBox="0 0 988.87 743.5"
 xmlns:xlink="http://www.w3.org/1999/xlink"
 xmlns:xodm="http://www.corel.com/coreldraw/odm/2003">
 <defs>
  <style type="text/css">
   <![CDATA[
    .fil0 {fill:white}
   ]]>
  </style>
 </defs>
 <g id="Camada_x0020_1">
  <metadata id="CorelCorpID_0Corel-Layer"/>
  <path class="fil0" d="M324.91 308.9c37.18,-3.55 71.6,20.99 86.06,52.8 27.37,60.21 -7.54,134.91 -72.63,140.59 -52.71,4.6 -92.82,-40.37 -95.76,-89.56 -3.26,-54.67 32.75,-99.1 82.32,-103.84zm324.71 0.1c13.63,-1.51 27.85,1.14 39.16,5.84 10.42,4.34 22.29,12.42 28.12,18.62 58.98,62.69 22.39,161.28 -51.46,168.71 -53.47,5.38 -92.99,-39.26 -96.98,-88.03 -4.09,-50.1 27.98,-99.24 81.16,-105.15zm-389.23 434.5l25.09 -43.22c2.9,-4.94 24.07,-40.78 24.59,-44.05 -5.39,-3.26 -13.56,-6.29 -19.45,-9.03l-39.72 -18.03c-4.25,-1.94 -17.13,-7.02 -19.93,-9.48l11.03 -22.83c6.09,1.51 20,9 27.05,12.04 9,3.88 18.37,7.53 27.76,10.92 129.44,46.72 265.36,45.51 394.79,-0.17 9.83,-3.47 18.51,-7 27.5,-11.24 5.37,-2.53 22.47,-11.02 27.2,-11.94l11.56 23.09c-2.81,2.35 -15.58,7.53 -19.68,9.39l-59.72 27.29c0.49,2.23 46.96,84.03 49.71,87.24 8.73,-1.15 51.59,-17.98 62.85,-22.18 20.52,-7.66 40.6,-16.56 60.35,-25.16 39.14,-17.05 78.8,-39.16 109.06,-62 4.66,-3.51 20.69,-16.8 21.96,-20.44 2.39,-6.86 4.11,-30.05 4.75,-38.62 12.42,-164.92 -43.72,-335.04 -123.35,-471.8l-24.35 -39.27c-7.66,-8.09 -60.64,-30.35 -72.7,-34.79 -37.63,-13.88 -96.9,-28.36 -141.45,-29.2l-18.14 51.42 -53.49 -7.88c-18.56,-2.81 -39.3,-3.49 -58.67,-3.48 -39.65,0.01 -49.74,1.42 -86.19,7.3 -8.04,1.3 -19.13,3.72 -27.1,4.19l-18.37 -51.57c-41.23,0.51 -103.03,15.08 -141.01,29.01 -14.34,5.26 -61.66,25.26 -72.46,34.28 -2.35,1.96 -22.47,35.51 -24.84,39.53 -67.89,115.35 -115.45,248.02 -123.98,388.53 -1.8,29.59 -1.92,91.65 4.82,121.1 1.2,5.25 17.1,17.81 21.84,21.37 53.87,40.41 133.61,75.39 200.14,98.82 7.6,2.68 25.45,10.07 32.53,10.86z"/>
 </g>
</svg>
