<?xml version="1.0" encoding="UTF-8"?>
<!DOCTYPE svg PUBLIC "-//W3C//DTD SVG 1.1//EN" "http://www.w3.org/Graphics/SVG/1.1/DTD/svg11.dtd">
<!-- Creator: CorelDRAW 2021 (64 Bit) -->
<svg xmlns="http://www.w3.org/2000/svg" xml:space="preserve" width="84.6667mm" height="84.6667mm" version="1.1" style="shape-rendering:geometricPrecision; text-rendering:geometricPrecision; image-rendering:optimizeQuality; fill-rule:evenodd; clip-rule:evenodd"
viewBox="0 0 900.07 900.07"
 xmlns:xlink="http://www.w3.org/1999/xlink"
 xmlns:xodm="http://www.corel.com/coreldraw/odm/2003">
 <defs>
  <style type="text/css">
   <![CDATA[
    .fil0 {fill:white}
   ]]>
  </style>
 </defs>
 <g id="Camada_x0020_1">
  <metadata id="CorelCorpID_0Corel-Layer"/>
  <path class="fil0" d="M79.62 657.74l0 -415.42c0,-85.5 77.21,-162.71 162.71,-162.71l415.42 0c85.5,0 162.71,77.21 162.71,162.71l0 415.42c0,85.5 -77.21,162.71 -162.71,162.71l-415.42 0c-85.5,0 -162.71,-77.21 -162.71,-162.71zm-79.62 -405.03l0 394.64c0,141.64 111.23,252.71 252.71,252.71l394.64 0c141.67,0 252.71,-111.04 252.71,-252.71l0 -394.64c0,-141.67 -111.04,-252.71 -252.71,-252.71l-394.64 0c-141.48,0 -252.71,111.07 -252.71,252.71zm297.71 204.25c0,-155.06 172.07,-203.82 260.64,-115.25 88.57,88.57 39.81,260.64 -115.25,260.64 -75.04,0 -145.4,-71.3 -145.4,-145.4zm-79.62 -6.92c0,126.46 105.54,231.94 231.94,231.94 126.4,0 231.94,-105.48 231.94,-231.94 0,-126.46 -105.54,-231.94 -231.94,-231.94 -126.4,0 -231.94,105.49 -231.94,231.94zm415.42 -242.32c0,73.93 109.87,79.57 115.49,5.55 6.03,-79.57 -115.49,-80.86 -115.49,-5.55z"/>
 </g>
</svg>
