<?xml version="1.0" encoding="UTF-8"?>
<!DOCTYPE svg PUBLIC "-//W3C//DTD SVG 1.1//EN" "http://www.w3.org/Graphics/SVG/1.1/DTD/svg11.dtd">
<!-- Creator: CorelDRAW 2021 (64 Bit) -->
<svg xmlns="http://www.w3.org/2000/svg" xml:space="preserve" width="84.6673mm" height="84.6667mm" version="1.1" style="shape-rendering:geometricPrecision; text-rendering:geometricPrecision; image-rendering:optimizeQuality; fill-rule:evenodd; clip-rule:evenodd"
viewBox="0 0 695.18 695.17"
 xmlns:xlink="http://www.w3.org/1999/xlink"
 xmlns:xodm="http://www.corel.com/coreldraw/odm/2003">
 <defs>
  <style type="text/css">
   <![CDATA[
    .fil0 {fill:white}
   ]]>
  </style>
 </defs>
 <g id="Camada_x0020_1">
  <metadata id="CorelCorpID_0Corel-Layer"/>
  <path class="fil0" d="M-0 83.31c0,-62.23 79.69,-115.1 141.29,-60.58 52.6,46.56 20.59,146.5 -55.37,146.5 -47.72,0 -85.92,-38.2 -85.92,-85.92zm377.53 611.86l-127.58 0 0 -463.45 135.39 0 0 62.49c18.48,-6.69 32.51,-75.51 151.01,-75.51 50.34,0 91.8,22.62 121.64,58.01 27.73,32.88 37.18,82.81 37.18,142.47l0 268.18c0,6 -1.81,7.81 -7.81,7.81l-132.79 0 0 -229.12c0,-59.34 -10.47,-119.77 -80.71,-119.77 -35.06,0 -58.37,15.38 -72.49,36.87 -17.43,26.54 -16.04,53.3 -16.04,95.92l0.15 195.43c0.18,11.05 2.58,20.68 -7.96,20.68zm-364.51 -7.81l0 -455.64 135.39 0c6,0 7.81,1.81 7.81,7.81l0 447.83c0,6 -1.81,7.81 -7.81,7.81l-127.58 0c-6,0 -7.81,-1.81 -7.81,-7.81z"/>
 </g>
</svg>
