<?xml version="1.0" encoding="UTF-8"?>
<!DOCTYPE svg PUBLIC "-//W3C//DTD SVG 1.1//EN" "http://www.w3.org/Graphics/SVG/1.1/DTD/svg11.dtd">
<!-- Creator: CorelDRAW 2021 (64 Bit) -->
<svg xmlns="http://www.w3.org/2000/svg" xml:space="preserve" width="103.277mm" height="84.6668mm" version="1.1" style="shape-rendering:geometricPrecision; text-rendering:geometricPrecision; image-rendering:optimizeQuality; fill-rule:evenodd; clip-rule:evenodd"
viewBox="0 0 1986.09 1628.2"
 xmlns:xlink="http://www.w3.org/1999/xlink"
 xmlns:xodm="http://www.corel.com/coreldraw/odm/2003">
 <defs>
  <style type="text/css">
   <![CDATA[
    .fil0 {fill:white}
   ]]>
  </style>
 </defs>
 <g id="Camada_x0020_1">
  <metadata id="CorelCorpID_0Corel-Layer"/>
  <path class="fil0" d="M1928.98 40.68c-32.41,7.55 -109.73,60.93 -226.09,85.74 -43.42,9.26 -41.54,-10.7 -67.65,-33.12 -253.98,-218.13 -671.31,-29.56 -671.19,315.42 0.01,25.42 5.76,79.82 13.13,95.18 -108.66,0 -191.84,-20.11 -274.24,-43.03 -72.35,-20.13 -165.7,-57.88 -224.37,-92.9 -82.39,-49.19 -161.11,-94.67 -229.44,-163.97 -17.63,-17.88 -29.16,-22.34 -44.65,-37.83 -15.5,-15.49 -19.99,-26.96 -37.87,-44.62 -14.01,-13.83 -28.32,-34.45 -39.7,-42.79 -20.57,38.87 -44.5,88.28 -49.98,140.39 -15.21,144.59 19.17,256.64 118.16,356.17l52.38 49.14c-75.04,0 -128.53,-24.76 -177.67,-50.77 0,155.55 80.27,288.1 196.89,355.16 78.7,45.26 110.43,35.04 126.73,57.29 -22.19,0.5 -65.11,8.56 -84.33,11.15 -38.15,5.13 -53.01,-4.8 -93.34,-4.8 16.82,72.19 82.98,154.52 135.79,194.17 62.84,47.18 137.89,85.02 244.93,85.02 -28.61,42.73 -191.37,120.71 -248.14,138.93 -116.91,37.52 -196.03,38.74 -348.32,38.74l104.17 60.81c83.91,37.5 111.4,50.64 207.41,78.13 185.55,53.12 403.13,51.47 600.55,5.41 386.15,-90.1 689.25,-389.76 814.61,-765.38 31.57,-94.61 67.4,-267.13 57.61,-383.68 -4.88,-58.11 37.85,-59.8 98.75,-119.86 38.49,-37.96 73.15,-80.9 102.98,-125.45l-104.13 35.47c-36.29,10.33 -81.95,21.64 -124.3,21.64 37.27,-32.4 55.35,-29.47 102.53,-87.83 20.3,-25.12 65.69,-90.55 68.8,-127.91z"/>
 </g>
</svg>
